<svg xmlns="http://www.w3.org/2000/svg" width="256" height="256" viewBox="0 0 256 256"><circle cx="43.9" cy="49.2" r="34.6" fill="#673200"/><circle cx="46.4" cy="58" r="14.8" fill="#ffaaca"/><circle cx="212.1" cy="49.2" r="34.6" fill="#673200"/><circle cx="209.6" cy="58" r="14.8" fill="#ffaaca"/><circle cx="128" cy="133.2" r="108.1" fill="#673200"/><circle cx="128" cy="172.7" r="42.3" fill="#c65b00"/><path fill="#c65b00" d="M174 35.4a65.6 65.6 0 0 0 61 113.3 108.2 108.2 0 0 0-61-113.3zM19.9 133.2a109 109 0 0 0 1.1 15.4A65.6 65.6 0 0 0 82 35.4a108.1 108.1 0 0 0-62.1 97.8z"/><path fill="none" stroke="#000" stroke-linecap="round" stroke-linejoin="round" stroke-width="3" d="M101.2 187.1a37.2 37.2 0 0 0 52.7 0"/><circle cx="128" cy="138.1" r="13" fill="#ffaaca"/><circle cx="84.8" cy="106.5" r="9.3"/><circle cx="171.2" cy="106.5" r="9.3"/></svg>